<?xml version="1.0" standalone="no"?>
<!DOCTYPE svg PUBLIC "-//W3C//DTD SVG 20010904//EN"
 "http://www.w3.org/TR/2001/REC-SVG-20010904/DTD/svg10.dtd">
<svg version="1.0" xmlns="http://www.w3.org/2000/svg"
 width="402.000000pt" height="402.000000pt" viewBox="0 0 402.000000 402.000000"
 preserveAspectRatio="xMidYMid meet">
<metadata>
Created by potrace 1.14, written by Peter Selinger 2001-2017
</metadata>
<g transform="translate(0.000000,402.000000) scale(0.100000,-0.100000)"
fill="#000000" stroke="none">
<path d="M3145 2266 c-56 -21 -73 -35 -95 -81 -32 -66 -26 -176 13 -232 77
-112 273 -80 308 50 28 105 -7 218 -78 252 -42 20 -111 25 -148 11z m103 -67
c42 -15 58 -60 54 -157 -3 -48 -49 -92 -97 -92 -44 0 -94 44 -96 84 -4 96 0
116 30 147 31 31 59 36 109 18z"/>
<path d="M290 2080 l0 -190 103 1 c128 1 146 6 175 49 32 48 25 105 -16 140
-30 25 -30 25 -11 49 35 43 17 113 -34 131 -16 5 -72 10 -123 10 l-94 0 0
-190z m188 116 c12 -12 14 -22 6 -43 -9 -26 -13 -28 -64 -28 l-54 0 -2 40 c0
22 3 43 8 46 17 11 91 1 106 -15z m20 -154 c17 -22 15 -57 -4 -77 -12 -12 -31
-15 -73 -13 l-56 3 0 50 c-1 28 0 53 1 56 6 13 119 -3 132 -19z"/>
<path d="M660 2080 l0 -190 131 0 130 0 -3 32 -3 33 -87 -2 c-95 -2 -90 -5
-90 57 0 17 1 34 1 38 1 5 29 9 64 9 34 1 68 1 75 2 6 1 12 14 12 31 l0 29
-77 3 c-85 3 -79 -3 -74 74 1 12 13 15 64 14 112 -4 117 -3 113 23 -3 12 -5
25 -5 30 -1 4 -57 7 -126 7 l-125 0 0 -190z"/>
<path d="M990 2080 l0 -190 35 0 c40 0 37 -14 37 168 0 50 2 92 4 92 1 0 39
-58 84 -130 l82 -130 39 0 39 0 0 190 0 190 -34 0 c-19 0 -36 -6 -38 -12 -3
-7 -4 -61 -3 -120 1 -60 -1 -108 -4 -108 -6 1 -19 20 -100 153 l-54 87 -43 0
-44 0 0 -190z"/>
<path d="M1409 2253 c0 -10 -1 -94 -2 -188 l0 -170 74 -3 c181 -8 252 47 251
195 -1 46 -7 74 -23 103 -33 58 -74 74 -196 78 -94 4 -103 2 -104 -15z m198
-62 c30 -15 43 -42 47 -93 4 -55 -13 -107 -41 -125 -12 -8 -46 -15 -75 -16
l-53 -2 -1 127 -1 126 51 -2 c28 -1 61 -8 73 -15z"/>
<path d="M1814 2080 l0 -190 38 0 38 0 0 190 0 190 -38 0 -37 0 -1 -190z"/>
<path d="M1950 2240 c0 -32 7 -35 78 -31 l32 2 0 -161 0 -160 38 0 38 0 -1
148 c-1 81 1 153 3 160 3 8 21 11 56 10 51 -3 51 -3 51 27 l0 30 -147 3 -148
3 0 -31z"/>
<path d="M2390 2267 c0 -2 -29 -88 -65 -190 l-65 -187 39 0 c37 0 40 2 54 43
l14 42 73 0 73 0 15 -42 c13 -41 16 -43 52 -43 45 0 48 -17 -24 190 -73 209
-61 190 -117 190 -27 0 -49 -1 -49 -3z m75 -147 c10 -30 20 -61 23 -67 3 -9
-10 -13 -48 -13 -44 0 -51 2 -46 18 25 88 41 131 47 125 3 -5 15 -33 24 -63z"/>
<path d="M2674 2080 l0 -191 110 2 c150 2 186 25 186 117 -1 41 -13 63 -47 81
-22 11 -22 12 -3 31 31 31 31 93 0 124 -18 18 -35 21 -133 24 l-112 4 -1 -192z
m172 126 c28 -9 36 -39 17 -65 -11 -16 -25 -21 -64 -21 l-49 0 0 44 c0 24 4
46 10 48 16 5 63 2 86 -6z m35 -162 c21 -19 18 -63 -7 -81 -10 -7 -42 -13 -71
-13 l-53 0 0 54 c0 32 5 56 12 58 24 8 103 -4 119 -18z"/>
<path d="M3430 2266 c0 -3 23 -44 50 -91 l50 -87 -41 -77 c-23 -42 -49 -86
-57 -98 -14 -22 -13 -23 25 -23 39 0 40 2 83 76 l43 75 45 -75 c43 -74 45 -76
84 -76 l39 0 -23 43 c-13 23 -25 44 -28 47 -3 3 -18 28 -33 57 l-27 52 50 85
c27 46 50 88 50 91 0 3 -17 5 -37 3 -35 -3 -41 -8 -73 -65 -19 -34 -38 -63
-42 -63 -4 0 -24 29 -45 65 -36 62 -39 65 -75 65 -21 0 -38 -2 -38 -4z"/>
<path d="M747 1722 c-38 -5 -61 -43 -54 -90 4 -20 14 -43 24 -49 34 -26 93
-10 93 24 0 8 -7 6 -20 -7 -24 -24 -29 -24 -58 -4 -29 20 -30 74 -2 99 17 15
24 16 46 7 29 -14 34 -15 34 -4 0 14 -35 27 -63 24z"/>
<path d="M875 1720 c-30 -5 -30 -5 -30 -75 l0 -70 49 -3 c27 -2 45 1 42 6 -3
5 -21 8 -40 7 -32 -1 -34 1 -34 27 1 25 5 28 35 28 18 0 33 4 33 10 0 5 -8 9
-17 8 -42 -3 -53 2 -49 25 2 17 10 22 35 23 17 1 34 3 37 6 8 9 -29 14 -61 8z"/>
<path d="M1000 1720 c-18 -4 -26 -14 -28 -33 -3 -25 2 -30 37 -44 27 -11 41
-22 41 -35 0 -10 -4 -19 -10 -19 -5 -1 -16 -2 -22 -3 -7 -1 -21 4 -30 12 -16
13 -18 13 -18 0 0 -29 68 -39 90 -13 16 19 9 45 -15 59 -55 29 -64 37 -59 49
6 16 44 20 60 6 7 -6 15 -6 18 -1 8 14 -36 29 -64 22z"/>
<path d="M1118 1722 c-33 -4 -38 -19 -6 -18 20 1 22 -4 24 -59 2 -76 3 -80 11
-72 3 4 6 36 6 72 0 43 3 65 11 64 21 -3 36 1 36 9 0 7 -36 9 -82 4z"/>
<path d="M1394 1719 c-12 -4 -24 -14 -27 -22 -6 -15 15 -52 30 -52 23 -2 53
-18 53 -29 0 -30 -59 -44 -68 -16 -2 5 -8 7 -13 4 -17 -10 12 -34 42 -34 29 0
59 22 59 44 0 13 -39 53 -46 49 -12 -8 -33 -1 -38 14 -9 22 13 34 48 27 18 -4
26 -2 22 4 -9 14 -39 20 -62 11z"/>
<path d="M1569 1720 c-16 -10 -21 -152 -5 -147 6 2 10 16 8 30 -3 24 0 27 25
27 16 0 38 6 48 14 30 21 10 68 -32 77 -17 3 -37 3 -44 -1z m67 -37 c8 -29 6
-30 -29 -37 -31 -5 -41 6 -33 38 8 34 54 33 62 -1z"/>
<path d="M1714 1720 c-18 -7 -20 -15 -18 -72 1 -34 2 -66 3 -70 1 -5 22 -8 48
-8 48 0 53 13 5 16 -42 2 -42 2 -42 29 0 25 10 30 53 26 9 -1 17 3 17 9 0 7
-13 10 -32 8 -29 -3 -33 0 -35 25 -2 25 1 27 39 27 23 0 39 2 37 4 -11 9 -56
13 -75 6z"/>
<path d="M1849 1722 c-25 -3 -26 -5 -26 -77 0 -41 3 -75 8 -75 5 0 9 16 9 35
0 31 3 35 25 33 18 -2 28 -11 36 -35 6 -18 15 -33 20 -33 12 0 11 6 -7 42 -11
22 -13 33 -5 38 6 3 13 16 16 28 5 26 -35 50 -76 44z m52 -28 c11 -14 10 -18
-6 -30 -27 -20 -49 -13 -53 16 -2 21 2 26 21 28 14 1 31 -6 38 -14z"/>
<path d="M1983 1717 c-40 -18 -26 -63 23 -76 34 -9 48 -50 17 -52 -29 -2 -48
2 -54 13 -4 7 -9 7 -13 0 -15 -25 69 -43 92 -20 28 28 10 64 -37 74 -22 4 -34
21 -28 38 8 19 38 21 56 4 11 -11 13 -10 9 1 -6 21 -40 30 -65 18z"/>
<path d="M2260 1710 c-1 -14 -2 -42 -3 -62 0 -21 -1 -38 -3 -38 -6 0 -64 91
-64 101 0 5 -6 9 -14 9 -17 0 -23 -41 -17 -107 5 -66 19 -51 16 19 l-2 61 18
-24 c11 -13 29 -41 41 -62 12 -20 26 -36 32 -34 11 4 15 102 5 138 l-7 24 -2
-25z"/>
<path d="M2660 1719 c-28 -8 -18 -12 23 -9 15 1 27 -2 27 -6 0 -5 -18 -34 -40
-65 -22 -32 -40 -60 -40 -63 0 -3 25 -6 56 -6 30 0 53 4 50 9 -3 5 -19 7 -36
6 -17 -1 -32 1 -35 5 -2 4 13 33 35 64 22 31 40 58 40 60 0 8 -57 11 -80 5z"/>
<path d="M3253 1722 c-52 -8 -54 -66 -3 -77 34 -8 52 -26 41 -44 -12 -19 -44
-21 -63 -3 -16 14 -18 14 -18 0 0 -33 72 -38 94 -7 19 28 4 54 -38 66 -20 6
-31 15 -31 27 0 21 32 31 51 15 7 -6 15 -6 17 -1 8 12 -25 28 -50 24z"/>
<path d="M1264 1708 c-5 -7 -9 -15 -10 -18 0 -3 -3 -12 -6 -20 -21 -60 -29
-92 -25 -97 3 -2 10 5 17 16 15 29 70 29 77 1 6 -22 23 -28 22 -7 -1 26 -45
131 -56 134 -6 2 -15 -2 -19 -9z m33 -51 c11 -35 13 -34 -39 -28 -9 1 12 61
21 61 4 0 12 -15 18 -33z"/>
<path d="M2095 1653 c0 -38 5 -69 10 -70 12 -4 12 130 -1 134 -5 2 -9 -25 -9
-64z"/>
<path d="M2356 1712 c-16 -27 -52 -142 -44 -142 6 0 12 9 15 20 4 16 14 20 44
20 32 0 39 -3 39 -20 0 -11 5 -20 10 -20 15 0 12 18 -14 84 -22 58 -38 77 -50
58z m31 -52 c12 -31 4 -41 -29 -32 -13 3 -15 9 -6 33 13 37 21 37 35 -1z"/>
<path d="M2469 1718 c-1 -2 -2 -36 -3 -75 l-2 -73 48 0 c27 0 47 4 44 9 -3 5
-19 7 -36 6 -35 -3 -40 8 -37 78 2 27 -1 51 -5 53 -4 3 -9 4 -9 2z"/>
<path d="M2589 1718 c-6 -14 -3 -148 3 -148 10 0 9 -2 11 83 1 37 -1 67 -5 67
-5 0 -9 -1 -9 -2z"/>
<path d="M2807 1713 c-3 -5 -15 -33 -26 -63 -22 -58 -28 -103 -9 -62 15 30 77
32 85 2 8 -31 24 -24 17 8 -20 81 -53 138 -67 115z m30 -55 c14 -31 10 -37
-21 -31 -22 5 -23 7 -13 39 11 36 16 35 34 -8z"/>
<path d="M2913 1645 l0 -75 38 0 c61 0 86 32 80 102 -2 30 -31 48 -76 48 l-43
0 1 -75z m94 38 c27 -41 -2 -104 -44 -97 -7 1 -17 2 -23 3 -11 1 -14 104 -4
114 14 14 57 1 71 -20z"/>
<path d="M3110 1716 c0 -1 -11 -34 -25 -72 -29 -80 -28 -74 -16 -74 5 0 13 9
16 20 5 15 15 20 40 20 24 0 34 -5 38 -20 3 -11 10 -20 15 -20 7 0 7 11 0 33
-28 83 -44 117 -55 117 -7 0 -13 -2 -13 -4z m35 -86 c-6 -10 -45 -1 -45 11 0
4 5 20 12 34 l12 26 13 -32 c7 -17 11 -35 8 -39z"/>
</g>
</svg>
